<?xml version="1.0" encoding="utf-8"?><svg version="1.1" id="Layer_1" xmlns="http://www.w3.org/2000/svg" xmlns:xlink="http://www.w3.org/1999/xlink" x="0px" y="0px" viewBox="0 0 91.87 122.88" style="enable-background:new 0 0 91.87 122.88" xml:space="preserve"><style type="text/css">.st0{fill-rule:evenodd;clip-rule:evenodd;fill:#262626;} .st1{fill-rule:evenodd;clip-rule:evenodd;fill:#86D4ED;} .st2{fill-rule:evenodd;clip-rule:evenodd;fill:#EB665F;} .st3{fill-rule:evenodd;clip-rule:evenodd;fill:#DE5149;} .st4{fill-rule:evenodd;clip-rule:evenodd;fill:#66BCD9;}</style><g><path class="st0" d="M45.48,12.42c6.84-11.85,22.13-15.94,33.98-9.1l0,0c11.85,6.84,15.94,22.13,9.1,33.98 c-14.14,24.49-28.24,48.74-42.38,73.22l0,0c-3.41,5.9-8.91,9.87-15.04,11.51c-6.13,1.64-12.88,0.96-18.78-2.45l0,0 c-5.9-3.41-9.87-8.91-11.51-15.04C-0.79,98.41-0.1,91.66,3.3,85.76l0,0C17.44,61.24,31.32,36.94,45.48,12.42L45.48,12.42 L45.48,12.42z"/><path class="st1" d="M62.77,74.02L26.75,53.23L7.21,87.07l0,0c-2.86,4.95-3.43,10.62-2.04,15.77c1.38,5.16,4.71,9.78,9.65,12.64 l0,0c4.95,2.86,10.62,3.43,15.77,2.04c5.14-1.38,9.78-4.71,12.64-9.66l0,0L62.77,74.02L62.77,74.02L62.77,74.02z"/><path class="st2" d="M65.22,69.74l-36.01-20.8l19.54-33.82l0,0c2.86-4.95,7.48-8.28,12.64-9.66c5.16-1.38,10.82-0.81,15.77,2.04 l0,0c4.95,2.86,8.28,7.48,9.66,12.64c1.37,5.15,0.81,10.82-2.05,15.77l0,0L65.22,69.74L65.22,69.74z"/><path class="st3" d="M38.1,54.09l-8.89-5.14l19.54-33.82l0,0c2.86-4.95,7.48-8.28,12.64-9.66c1.69-0.45,3.44-0.7,5.2-0.72 L38.1,54.09L38.1,54.09z"/><path class="st4" d="M35.67,58.33l-8.9-5.13L7.26,87.03l0,0C4.4,91.98,3.83,97.65,5.21,102.8c0.45,1.69,1.12,3.33,1.98,4.86 L35.67,58.33L35.67,58.33z"/></g></svg>